#vertex 1
v 50 0 150
#vertex 2
v 50 0 50
#vertex 3
v 50 26 50
#vertex 4
v 50 26 150
#vertex 5
v 17 26 150
#vertex 6
v 17 26 50
#vertex 7
v 17 0 150
#vertex 8
v 17 50 50
#vertex 9
v 17 50 150
#vertex 10
v -17 50 50
#vertex 11
v -17 50 150
#vertex 12
v -17 0 150
#vertex 13
v -17 75 50
#vertex 14
v -17 75 150
#vertex 15
v -50 75 50
#vertex 16
v -50 75 150
#vertex 17
v -50 0 150
#vertex 18
v -150 75 50
#vertex 19
v -150 75 150
#vertex 20
v -150 0 150
#vertex 21
v -150 0 50
#vertex 22
v -50 0 50
#vertex 23
v -50 100 50
#vertex 24
v -150 100 50
#vertex 25
v -50 100 17
#vertex 26
v -150 100 17
#vertex 27
v -150 75 17
#vertex 28
v -50 126 17
#vertex 29
v -150 126 17
#vertex 30
v -50 126 -17
#vertex 31
v -150 126 -17
#vertex 32
v -150 75 -17
#vertex 33
v -50 150 -17
#vertex 34
v -150 150 -17
#vertex 35
v -50 150 -50
#vertex 36
v -150 150 -50
#vertex 37
v -150 75 -50
#vertex 38
v -50 150 -150
#vertex 39
v -150 150 -150
#vertex 40
v -150 75 -150
#vertex 41
v -50 75 -150
#vertex 42
v -50 75 -50
#vertex 43
v -50 175 -50
#vertex 44
v -50 175 -150
#vertex 45
v -17 175 -50
#vertex 46
v -17 175 -150
#vertex 47
v -17 150 -150
#vertex 48
v -17 200 -50
#vertex 49
v -17 200 -150
#vertex 50
v 17 200 -50
#vertex 51
v 17 200 -150
#vertex 52
v 17 150 -150
#vertex 53
v 17 225 -50
#vertex 54
v 17 225 -150
#vertex 55
v 50 225 -50
#vertex 56
v 50 225 -150
#vertex 57
v 50 150 -150
#vertex 58
v 150 225 -50
#vertex 59
v 150 225 -150
#vertex 60
v 150 150 -150
#vertex 61
v 150 150 -50
#vertex 62
v 50 150 -50
#vertex 63
v 50 250 -50
#vertex 64
v 150 250 -50
#vertex 65
v 50 250 -17
#vertex 66
v 150 250 -17
#vertex 67
v 150 225 -17
#vertex 68
v 50 275 -17
#vertex 69
v 150 275 -17
#vertex 70
v 50 275 17
#vertex 71
v 150 275 17
#vertex 72
v 150 225 17
#vertex 73
v 50 300 17
#vertex 74
v 150 300 17
#vertex 75
v 50 300 50
#vertex 76
v 150 300 50
#vertex 77
v 150 225 50
#vertex 78
v 50 300 150
#vertex 79
v 150 300 150
#vertex 80
v 150 225 150
#vertex 81
v 50 225 150
#vertex 82
v 50 225 50
#vertex 83
v -50 0 -50
#vertex 84
v 50 0 -50
#vertex 85
v -50 300 50
#vertex 86
v -50 300 -50
#vertex 87
v 50 300 -50

#uv 1
vt 0 0 0
#uv 2
vt 1 0 0
#uv 3
vt 1 0.31000000000000005 0
#uv 4
vt 0 0.31000000000000005 0
#uv 5
vt 1 0.7000000000000001 0
#uv 6
vt 0 0.7000000000000001 0
#uv 7
vt 1 1 0
#uv 8
vt 0 1 0
#uv 9
vt 0.7000000000000001 0 0
#uv 10
vt 0.7000000000000001 0.31000000000000005 0
#uv 11
vt 0.31000000000000005 0 0
#uv 12
vt 0.7000000000000001 0.7000000000000001 0
#uv 13
vt 0.31000000000000005 0.7000000000000001 0
#uv 14
vt 0.31000000000000005 1 0
#uv 15
vt 1 2 0
#uv 16
vt 0 2 0
#uv 17
vt 1 3 0
#uv 18
vt 0 3 0

#normal 1
vn 1 0 0
#normal 2
vn 0 1 0
#normal 3
vn 0 0 1
#normal 4
vn -1 0 0
#normal 5
vn 0 -1 0
#normal 6
vn 0 0 -1

o 台阶1.1
f 1/1/1 2/2/1 3/3/1 4/4/1
f 4/4/2 3/3/2 6/5/2 5/6/2
f 7/9/3 1/2/3 4/3/3 5/10/3

o 台阶1.2
f 5/6/1 6/5/1 8/7/1 9/8/1
f 9/1/2 8/2/2 10/3/2 11/4/2
f 12/11/3 7/9/3 9/12/3 11/13/3

o 台阶1.3
f 11/4/1 10/3/1 13/5/1 14/6/1
f 14/6/2 13/5/2 15/7/2 16/8/2
f 17/1/3 12/11/3 14/14/3 16/8/3

o 大平面1
f 16/1/2 15/2/2 18/7/2 19/8/2
f 20/1/3 17/2/3 16/7/3 19/8/3
f 21/1/4 20/2/4 19/7/4 18/8/4
f 22/1/6 21/2/6 18/7/6 15/8/6
f 2/1/5 1/2/5 20/15/5 21/16/5

o 台阶2.1
f 18/1/3 15/2/3 23/3/3 24/4/3
f 24/4/2 23/3/2 25/5/2 26/6/2
f 27/9/4 18/2/4 24/3/4 26/10/4

o 台阶2.2
f 26/6/3 25/5/3 28/7/3 29/8/3
f 29/1/2 28/2/2 30/3/2 31/4/2
f 32/11/4 27/9/4 29/12/4 31/13/4

o 台阶2.3
f 31/4/3 30/3/3 33/5/3 34/6/3
f 34/6/2 33/5/2 35/7/2 36/8/2
f 37/1/4 32/11/4 34/14/4 36/8/4

o 大平面2
f 36/1/2 35/2/2 38/7/2 39/8/2
f 40/1/4 37/2/4 36/7/4 39/8/4
f 41/1/6 40/2/6 39/7/6 38/8/6
f 15/1/5 18/2/5 40/15/5 41/16/5
f 42/1/1 41/2/1 38/7/1 35/8/1

o 台阶3.1
f 38/1/4 35/2/4 43/3/4 44/4/4
f 44/4/2 43/3/2 45/5/2 46/6/2
f 47/9/6 38/2/6 44/3/6 46/10/6

o 台阶3.2
f 46/6/4 45/5/4 48/7/4 49/8/4
f 49/1/2 48/2/2 50/3/2 51/4/2
f 52/11/6 47/9/6 49/12/6 51/13/6

o 台阶3.3
f 51/4/4 50/3/4 53/5/4 54/6/4
f 54/6/2 53/5/2 55/7/2 56/8/2
f 57/1/6 52/11/6 54/14/6 56/8/6

o 大平面3
f 56/1/2 55/2/2 58/7/2 59/8/2
f 60/1/6 57/2/6 56/7/6 59/8/6
f 61/1/1 60/2/1 59/7/1 58/8/1
f 62/1/3 61/2/3 58/7/3 55/8/3
f 35/1/5 38/2/5 60/15/5 61/16/5

o 台阶4.1
f 58/1/6 55/2/6 63/3/6 64/4/6
f 64/4/2 63/3/2 65/5/2 66/6/2
f 67/9/1 58/2/1 64/3/1 66/10/1

o 台阶4.2
f 66/6/6 65/5/6 68/7/6 69/8/6
f 69/1/2 68/2/2 70/3/2 71/4/2
f 72/11/1 67/9/1 69/12/1 71/13/1

o 台阶4.3
f 71/4/6 70/3/6 73/5/6 74/6/6
f 74/6/2 73/5/2 75/7/2 76/8/2
f 77/1/1 72/11/1 74/14/1 76/8/1

o 大平面4
f 76/1/2 75/2/2 78/7/2 79/8/2
f 80/1/1 77/2/1 76/7/1 79/8/1
f 81/1/3 80/2/3 79/7/3 78/8/3
f 82/1/4 81/2/4 78/7/4 75/8/4
f 55/1/5 58/2/5 80/15/5 81/16/5

o 柱子
f 22/1/3 2/2/3 75/17/3 85/18/3
f 83/1/4 22/2/4 85/17/4 86/18/4
f 84/1/3 83/2/3 86/17/3 87/18/3
f 2/1/1 84/2/1 87/17/1 75/18/1
f 75/1/2 87/2/2 86/7/2 85/8/2